{"title":"Fairy Tail - Ep.168 Laxus vs Alexi[gWc]","uid":8120439,"size":64941644,"categoryP":"video","categoryS":"other","magnet":"?xt=urn:btih:bdc4fd6bc1ff50ebe52d7fadfb0f648473cb9a95&amp;dn=Fairy+Tail+-+Ep.168+Laxus+vs+Alexi%5BgWc%5D&amp;tr=udp%3A%2F%2Ftracker.openbittorrent.com%3A80&amp;tr=udp%3A%2F%2Fopen.demonii.com%3A1337&amp;tr=udp%3A%2F%2Ftracker.coppersurfer.tk%3A6969&amp;tr=udp%3A%2F%2Fexodus.desync.com%3A6969","seeders":0,"leechers":1,"uploader":"canc232","files":1,"time":1360392153,"description":" Format : MPEG-4\nFormat profile : Base Media\nCodec ID : isom\nFile size : 61.9 MiB\nDuration : 24mn 24s\nOverall bit rate mode : Variable\nOverall bit rate : 355 Kbps\nEncoded date : UTC 2013-02-09 03:02:01\nTagged date : UTC 2013-02-09 03:02:01\n\nVideo\nID : 1\nFormat : AVC\nFormat/Info : Advanced Video Codec\nFormat profile : &lt;a class=&quot;__cf_email__&quot; href=&quot;/cdn-cgi/l/email-protection&quot; data-cfemail=&quot;b2fadbd5daf2fe819c82&quot;&gt;[email&amp;#160;protected]&lt;/a&gt;&lt;script cf-hash='f9e31' type=&quot;text/javascript&quot;&gt;\n/* &lt;![CDATA[ */!function(){try{var t=&quot;currentScript&quot;in document?document.currentScript:function(){for(var t=document.getElementsByTagName(&quot;script&quot;),e=t.length;e--;)if(t[e].getAttribute(&quot;cf-hash&quot;))return t[e]}();if(t&amp;&amp;t.previousSibling){var e,r,n,i,c=t.previousSibling,a=c.getAttribute(&quot;data-cfemail&quot;);if(a){for(e=&quot;&quot;,r=parseInt(a.substr(0,2),16),n=2;a.length-n;n+=2)i=parseInt(a.substr(n,2),16)^r,e+=String.fromCharCode(i);e=document.createTextNode(e),c.parentNode.replaceChild(e,c)}}}catch(u){}}();/* ]]&gt; */&lt;/script&gt;\nFormat settings, CABAC : Yes\nFormat settings, ReFrames : 4 frames\nCodec ID : avc1\nCodec ID/Info : Advanced Video Coding\nDuration : 24mn 24s\nBit rate mode : Variable\nBit rate : 255 Kbps\nMaximum bit rate : 1 315 Kbps\nWidth : 656 pixels\nHeight : 368 pixels\nDisplay aspect ratio : 16:9\nOriginal display aspect ratio : 16:9\nFrame rate mode : Constant\nFrame rate : 23.976 fps\nColor space : YUV\nChroma subsampling : 4:2:0\nBit depth : 8 bits\nScan type : Progressive\nBits/(Pixel*Frame) : 0.044\nStream size : 44.5 MiB (72%)\nWriting library : x264 core 129 r2230 1cffe9f\n\nAudio\nID : 2\nFormat : AAC\nFormat/Info : Advanced Audio Codec\nFormat profile : LC\nCodec ID : 40\nDuration : 24mn 24s\nBit rate mode : Variable\nBit rate : 96.0 Kbps\nMaximum bit rate : 106 Kbps\nChannel(s) : 2 channels\nChannel positions : Front: L R\nSampling rate : 44.1 KHz\nCompression mode : Lossy\nStream size : 16.8 MiB (27%)\n\n\nSubtitles:\nEnglish(Hardcoded)\n","torrent":{"xt":"urn:btih:bdc4fd6bc1ff50ebe52d7fadfb0f648473cb9a95","amp;dn":"Fairy+Tail+-+Ep.168+Laxus+vs+Alexi%5BgWc%5D","amp;tr":["udp%3A%2F%2Ftracker.openbittorrent.com%3A80","udp%3A%2F%2Fopen.demonii.com%3A1337","udp%3A%2F%2Ftracker.coppersurfer.tk%3A6969","udp%3A%2F%2Fexodus.desync.com%3A6969"],"infoHash":"bdc4fd6bc1ff50ebe52d7fadfb0f648473cb9a95","infoHashBuffer":{"type":"Buffer","data":[189,196,253,107,193,255,80,235,229,45,127,173,251,15,100,132,115,203,154,149]},"announce":[],"urlList":[]}}